# xmcd CD database file
# Copyright (C) 1995 Ti Kan
#
# Track frame offsets:
#	182
#	12607
#	25115
#	36682
#	49445
#	61902
#	79232
#	95662
#	107882
#	119182
#	134270
#	147120
#	162632
#
# Disc length: 2426 seconds
#
# Revision: 1
# Processed by: cddbd v1.4b41PL1 Copyright (c) Steve Scherf et al.
# Submitted via: xmcd 1.4
#
DISCID=c809780d
DTITLE=Blood Oranges - Corn River
DYEAR=1900
DGENRE=
TTITLE0=Pounding Pipes
TTITLE1=Heart Of Mud
TTITLE2=Baby Down
TTITLE3=Shady Grove
TTITLE4=Little Maggie
TTITLE5=Thief
TTITLE6=High On A Mountaintop
TTITLE7=Racehorse
TTITLE8=Dig A Hole
TTITLE9=Houseboat
TTITLE10=Incinerator
TTITLE11=Western Man
TTITLE12=Time Takes Away
EXTD=
EXTT0=
EXTT1=
EXTT2=
EXTT3=
EXTT4=
EXTT5=
EXTT6=
EXTT7=
EXTT8=
EXTT9=
EXTT10=
EXTT11=
EXTT12=
PLAYORDER=
